<svg xmlns="http://www.w3.org/2000/svg" id="mainsvg" width="281.43671875" height="275.96250000000003" viewBox="-10 -10 255.8515625 250.875"><defs><marker id="arrow" viewBox="0 0 10 10" refX="10" refY="5" markerWidth="5" markerHeight="5" orient="auto-start-reverse" fill="black"><path d="M 0 0 L 10 5 L 0 10 z"/></marker><filter id="shadowOLD" x="-50%" y="-50%" width="250%" height="250%"><feDropShadow flood-color="black" flood-opacity="0.3" dx="1" dy="1" stdDeviation="2"> </feDropShadow></filter><filter id="shadow-path" filterUnits="userSpaceOnUse" x="-10" y="-10" width="255.8515625px" height="250.875px"><feDropShadow flood-color="black" flood-opacity="0.1" dx="1" dy="1" stdDeviation="1"> </feDropShadow></filter><filter id="shadow" filterUnits="userSpaceOnUse" x="-10" y="-10" width="355.8515625px" height="350.875px"><feDropShadow flood-color="black" flood-opacity="0.1" dx="1" dy="1" stdDeviation="1"> </feDropShadow></filter></defs><rect x="-10" y="-10" width="255.8515625" height="250.875" fill="#fff"/><path transform="rotate(0,0, 0) scale(1)" d="M42.6796875,33.375L42.6796875,38.822916666666664C42.6796875,44.270833333333336,42.6796875,55.166666666666664,50.56472796347574,66.0625C58.44976842695147,76.95833333333333,74.21984935390294,87.85416666666667,82.10488981737869,93.30208333333333L89.98993028085442,98.75" stroke="black" stroke-dasharray="none" stroke-width="2" fill="none" marker-end="url(#arrow)"/><g transform="translate(6.88671875, 54.375)"><rect width="79.5859375" height="23.375" stroke="none" fill="white" stroke-width="0" transform="translate(0, 0)" rx="2"/><text fill="black" font-size="14" font-weight="normal" transform="translate(4, 4)" alignment-baseline="middle" font-family="Arial"><tspan x="0" dy="14" font-family="Arial" font-size="14" font-weight="normal">Instructions</tspan></text></g><path transform="rotate(0,0, 0) scale(1)" d="M114.142578125,132.125L114.142578125,137.57291666666666C114.142578125,143.02083333333334,114.142578125,153.91666666666666,114.142578125,164.8125C114.142578125,175.70833333333334,114.142578125,186.60416666666666,114.142578125,192.05208333333334L114.142578125,197.5" stroke="black" stroke-dasharray="none" stroke-width="2" fill="none" marker-end="url(#arrow)"/><g transform="translate(100.908203125, 153.125)"><rect width="34.46875" height="23.375" stroke="none" fill="white" stroke-width="0" transform="translate(0, 0)" rx="2"/><text fill="black" font-size="14" font-weight="normal" transform="translate(4, 4)" alignment-baseline="middle" font-family="Arial"><tspan x="0" dy="14" font-family="Arial" font-size="14" font-weight="normal">land</tspan></text></g><path transform="rotate(0,0, 0) scale(1)" d="M185.60546875,33.375L185.60546875,38.822916666666664C185.60546875,44.270833333333336,185.60546875,55.166666666666664,177.72042828652425,66.0625C169.83538782304853,76.95833333333333,154.06530689609704,87.85416666666667,146.18026643262132,93.30208333333333L138.29522596914558,98.75" stroke="black" stroke-dasharray="none" stroke-width="2" fill="none" marker-end="url(#arrow)"/><g transform="translate(151.7470703125, 54.375)"><rect width="75.716796875" height="23.375" stroke="none" fill="white" stroke-width="0" transform="translate(0, 0)" rx="2"/><text fill="black" font-size="14" font-weight="normal" transform="translate(4, 4)" alignment-baseline="middle" font-family="Arial"><tspan x="0" dy="14" font-family="Arial" font-size="14" font-weight="normal">destination</tspan></text></g><g transform="translate(85.681640625, 98.75)"><rect width="56.921875" height="33.375" stroke="black" fill="white" stroke-width="2" transform="translate(0, 0)" rx="3"/><g transform="translate(8, 8)"><g transform="translate(0, 0)"><rect width="40.921875" height="17.375" stroke="none" fill="white" stroke-width="0" transform="translate(0, 0)" rx="3"/><text fill="black" font-size="16" font-weight="normal" transform="translate(0, 0)" alignment-baseline="middle" font-family="Arial"><tspan x="0" dy="16" font-family="Arial" font-size="16" font-weight="normal">Plane</tspan></text></g></g></g><g transform="translate(0, 0)"><rect width="85.359375" height="33.375" stroke="black" fill="white" stroke-width="2" transform="translate(0, 0)" rx="3"/><g transform="translate(8, 8)"><g transform="translate(0, 0)"><rect width="69.359375" height="17.375" stroke="none" fill="white" stroke-width="0" transform="translate(0, 0)" rx="3"/><text fill="black" font-size="16" font-weight="normal" transform="translate(0, 0)" alignment-baseline="middle" font-family="Arial"><tspan x="0" dy="16" font-family="Arial" font-size="16" font-weight="normal">Controller</tspan></text></g></g></g><g transform="translate(82.580078125, 197.5)"><rect width="63.125" height="33.375" stroke="black" fill="white" stroke-width="2" transform="translate(0, 0)" rx="3"/><g transform="translate(8, 8)"><g transform="translate(0, 0)"><rect width="47.125" height="17.375" stroke="none" fill="white" stroke-width="0" transform="translate(0, 0)" rx="3"/><text fill="black" font-size="16" font-weight="normal" transform="translate(0, 0)" alignment-baseline="middle" font-family="Arial"><tspan x="0" dy="16" font-family="Arial" font-size="16" font-weight="normal">Airport</tspan></text></g></g></g><g transform="translate(135.359375, 0)"><rect width="100.4921875" height="33.375" stroke="black" fill="white" stroke-width="2" transform="translate(0, 0)" rx="3"/><g transform="translate(8, 8)"><g transform="translate(0, 0)"><rect width="84.4921875" height="17.375" stroke="none" fill="white" stroke-width="0" transform="translate(0, 0)" rx="3"/><text fill="black" font-size="16" font-weight="normal" transform="translate(0, 0)" alignment-baseline="middle" font-family="Arial"><tspan x="0" dy="16" font-family="Arial" font-size="16" font-weight="normal">Passengers</tspan></text></g></g></g></svg>